<svg width="44" height="44" viewBox="0 0 44 44" fill="none" xmlns="http://www.w3.org/2000/svg">
<rect width="44" height="44" rx="12" fill="#0B98FF"/>
<mask id="mask0_8689_28325" style="mask-type:alpha" maskUnits="userSpaceOnUse" x="6" y="6" width="32" height="32">
<rect x="6" y="6" width="32" height="32" fill="#D9D9D9"/>
</mask>
<g mask="url(#mask0_8689_28325)">
<path d="M18.7974 27.504C16.3386 27.504 14.2577 26.6519 12.5546 24.9476C10.8515 23.2433 10 21.1781 10 18.752C10 16.326 10.8522 14.2608 12.5565 12.5565C14.2607 10.8522 16.3297 10 18.7634 10C21.197 10 23.2622 10.8522 24.9589 12.5565C26.6556 14.2608 27.504 16.3271 27.504 18.7554C27.504 19.7357 27.3453 20.6755 27.0279 21.5749C26.7104 22.4743 26.2494 23.3018 25.6448 24.0576L33.6712 32.0388C33.8904 32.2512 34 32.5216 34 32.8499C34 33.1783 33.8904 33.4521 33.6712 33.6712C33.452 33.8904 33.1783 34 32.8499 34C32.5216 34 32.2512 33.8904 32.0387 33.6712L24.035 25.6675C23.3548 26.2418 22.5653 26.6915 21.6665 27.0165C20.7677 27.3415 19.8113 27.504 18.7974 27.504ZM18.7747 25.2367C20.5697 25.2367 22.0954 24.6037 23.3519 23.3377C24.6084 22.0718 25.2366 20.5432 25.2366 18.752C25.2366 16.9608 24.6084 15.4322 23.3519 14.1663C22.0954 12.9003 20.5697 12.2674 18.7747 12.2674C16.9671 12.2674 15.4306 12.9003 14.1653 14.1663C12.9 15.4322 12.2673 16.9608 12.2673 18.752C12.2673 20.5432 12.9 22.0718 14.1653 23.3377C15.4306 24.6037 16.9671 25.2367 18.7747 25.2367Z" fill="white"/>
</g>
</svg>
