<svg width="29" height="29" viewBox="0 0 29 29" fill="none" xmlns="http://www.w3.org/2000/svg">
<g id="fluent:ios-arrow-24-filled">
<path id="Vector" d="M15.3785 24.5447C15.4875 24.6601 15.5727 24.7958 15.6293 24.9441C15.6858 25.0924 15.7126 25.2504 15.7082 25.409C15.7037 25.5677 15.668 25.7239 15.6031 25.8688C15.5382 26.0136 15.4455 26.1443 15.3301 26.2533C15.2148 26.3623 15.0791 26.4476 14.9308 26.5041C14.7825 26.5607 14.6245 26.5875 14.4658 26.583C14.3072 26.5785 14.151 26.5428 14.0061 26.478C13.8612 26.4131 13.7306 26.3203 13.6215 26.205L3.35071 15.33C3.13861 15.1056 3.02042 14.8086 3.02042 14.4999C3.02042 14.1911 3.13861 13.8941 3.35071 13.6697L13.6215 2.79353C13.7298 2.67564 13.8605 2.58045 14.0059 2.51348C14.1513 2.4465 14.3085 2.40909 14.4685 2.40341C14.6285 2.39772 14.788 2.42389 14.9378 2.48037C15.0875 2.53685 15.2246 2.62254 15.341 2.73244C15.4574 2.84234 15.5508 2.97428 15.6157 3.12058C15.6807 3.26688 15.716 3.42463 15.7194 3.58467C15.7229 3.74471 15.6946 3.90385 15.636 4.05284C15.5775 4.20183 15.49 4.3377 15.3785 4.45257L5.89063 14.4999L15.3785 24.5447Z" fill="#A6CEEC"/>
</g>
</svg>
