<svg width="24" height="25" viewBox="0 0 24 25" fill="none" xmlns="http://www.w3.org/2000/svg">
<g id="fluent:ios-arrow-24-filled">
<path id="Vector" d="M11.2727 4.187C11.1824 4.09153 11.1119 3.97923 11.0651 3.8565C11.0183 3.73377 10.9961 3.60302 10.9998 3.47172C11.0035 3.34042 11.0331 3.21113 11.0868 3.09125C11.1404 2.97136 11.2172 2.86322 11.3127 2.773C11.4081 2.68279 11.5204 2.61226 11.6432 2.56544C11.7659 2.51863 11.8966 2.49644 12.028 2.50016C12.1593 2.50387 12.2885 2.53341 12.4084 2.58709C12.5283 2.64077 12.6364 2.71753 12.7267 2.813L21.2267 11.813C21.4022 11.9987 21.5 12.2445 21.5 12.5C21.5 12.7555 21.4022 13.0013 21.2267 13.187L12.7267 22.188C12.637 22.2856 12.5289 22.3643 12.4086 22.4198C12.2883 22.4752 12.1581 22.5062 12.0257 22.5109C11.8933 22.5156 11.7613 22.4939 11.6374 22.4472C11.5134 22.4004 11.4 22.3295 11.3037 22.2386C11.2073 22.1476 11.1301 22.0384 11.0763 21.9173C11.0225 21.7963 10.9934 21.6657 10.9905 21.5333C10.9876 21.4008 11.011 21.2691 11.0595 21.1458C11.1079 21.0225 11.1804 20.9101 11.2727 20.815L19.1247 12.5L11.2727 4.187Z" fill="#C2C0C1"/>
</g>
</svg>
