<svg width="24" height="24" viewBox="0 0 24 24" fill="none" xmlns="http://www.w3.org/2000/svg">
<rect width="24" height="24" fill="#F5F5F5"/>
<g id="Search">
<rect width="1920" height="2256" transform="translate(-637 -473)" fill="white"/>
<g id="Frame 473">
<g id="Frame 474">
<g id="Frame 248">
<g id="Frame 222">
<g id="Frame 222_2">
<g id="Frame 255">
<g id="Frame 221">
<g id="Frame 247" opacity="0.8">
<g id="Frame 218">
<rect x="-82.5" y="-15.5" width="118" height="55" rx="9.5" fill="white"/>
<g id="Frame 220">
<g id="octicon:triangle-up-16">
<path id="Vector" d="M17.3595 9.64056L12.2655 14.7346C12.2307 14.7695 12.1893 14.7972 12.1437 14.8161C12.0982 14.835 12.0493 14.8447 12 14.8447C11.9507 14.8447 11.9018 14.835 11.8563 14.8161C11.8107 14.7972 11.7693 14.7695 11.7345 14.7346L6.6405 9.64056C6.58792 9.58811 6.5521 9.52123 6.53757 9.4484C6.52305 9.37557 6.53048 9.30006 6.55891 9.23146C6.58735 9.16285 6.63552 9.10424 6.69731 9.06304C6.7591 9.02184 6.83174 8.99992 6.906 9.00006L17.094 9.00006C17.1683 8.99992 17.2409 9.02185 17.3027 9.06304C17.3645 9.10424 17.4127 9.16285 17.4411 9.23146C17.4695 9.30006 17.477 9.37557 17.4624 9.4484C17.4479 9.52123 17.4121 9.58811 17.3595 9.64056Z" fill="#333D4B"/>
</g>
</g>
<rect x="-82.5" y="-15.5" width="118" height="55" rx="9.5" stroke="#707070"/>
</g>
</g>
</g>
</g>
</g>
</g>
</g>
</g>
</g>
</g>
</svg>
