<svg width="24" height="24" viewBox="0 0 24 24" fill="none" xmlns="http://www.w3.org/2000/svg">
<g id="octicon:triangle-up-16">
<path id="Vector" d="M17.3596 9.64056L12.2656 14.7346C12.2307 14.7695 12.1893 14.7972 12.1438 14.8161C12.0982 14.835 12.0494 14.8447 12.0001 14.8447C11.9507 14.8447 11.9019 14.835 11.8563 14.8161C11.8108 14.7972 11.7694 14.7695 11.7346 14.7346L6.64056 9.64056C6.58798 9.58811 6.55215 9.52123 6.53763 9.4484C6.5231 9.37557 6.53053 9.30006 6.55897 9.23146C6.58741 9.16285 6.63557 9.10424 6.69737 9.06304C6.75916 9.02184 6.83179 8.99992 6.90606 9.00006L17.0941 9.00006C17.1683 8.99992 17.241 9.02185 17.3027 9.06304C17.3645 9.10424 17.4127 9.16285 17.4411 9.23146C17.4696 9.30006 17.477 9.37557 17.4625 9.4484C17.448 9.52123 17.4121 9.58811 17.3596 9.64056Z" fill="#333D4B"/>
</g>
</svg>
