<svg width="18" height="18" viewBox="0 0 18 18" fill="none" xmlns="http://www.w3.org/2000/svg">
<rect width="18" height="18" rx="9" fill="#626D7D"/>
<mask id="mask0_8689_28368" style="mask-type:alpha" maskUnits="userSpaceOnUse" x="0" y="0" width="24" height="24">
<rect width="24" height="24" fill="black"/>
</mask>
<g mask="url(#mask0_8689_28368)">
<path d="M8.99961 10.0484L6.82461 12.2234C6.68711 12.3609 6.51211 12.4297 6.29961 12.4297C6.08711 12.4297 5.91211 12.3609 5.77461 12.2234C5.63711 12.0859 5.56836 11.9109 5.56836 11.6984C5.56836 11.4859 5.63711 11.3109 5.77461 11.1734L7.94961 8.99844L5.77461 6.84219C5.63711 6.70469 5.56836 6.52969 5.56836 6.31719C5.56836 6.10469 5.63711 5.92969 5.77461 5.79219C5.91211 5.65469 6.08711 5.58594 6.29961 5.58594C6.51211 5.58594 6.68711 5.65469 6.82461 5.79219L8.99961 7.96719L11.1559 5.79219C11.2934 5.65469 11.4684 5.58594 11.6809 5.58594C11.8934 5.58594 12.0684 5.65469 12.2059 5.79219C12.3559 5.94219 12.4309 6.12031 12.4309 6.32656C12.4309 6.53281 12.3559 6.70469 12.2059 6.84219L10.0309 8.99844L12.2059 11.1734C12.3434 11.3109 12.4121 11.4859 12.4121 11.6984C12.4121 11.9109 12.3434 12.0859 12.2059 12.2234C12.0559 12.3734 11.8777 12.4484 11.6715 12.4484C11.4652 12.4484 11.2934 12.3734 11.1559 12.2234L8.99961 10.0484Z" fill="#F2F4F6"/>
</g>
</svg>

