<svg width="24" height="24" viewBox="0 0 24 24" fill="none" xmlns="http://www.w3.org/2000/svg">
<mask id="mask0_8764_129" style="mask-type:alpha" maskUnits="userSpaceOnUse" x="0" y="0" width="24" height="24">
<rect width="24" height="24" fill="#D9D9D9"/>
</mask>
<g mask="url(#mask0_8764_129)">
<path d="M6.80005 13L9.70005 15.9C9.88338 16.0834 9.97505 16.3167 9.97505 16.6C9.97505 16.8834 9.88338 17.1167 9.70005 17.3C9.51672 17.4834 9.28338 17.575 9.00005 17.575C8.71672 17.575 8.48338 17.4834 8.30005 17.3L3.70005 12.7C3.60005 12.6 3.52922 12.4917 3.48755 12.375C3.44588 12.2584 3.42505 12.1334 3.42505 12C3.42505 11.8667 3.44588 11.7417 3.48755 11.625C3.52922 11.5084 3.60005 11.4 3.70005 11.3L8.30005 6.70005C8.48338 6.51672 8.71672 6.42505 9.00005 6.42505C9.28338 6.42505 9.51672 6.51672 9.70005 6.70005C9.88338 6.88338 9.97505 7.11672 9.97505 7.40005C9.97505 7.68338 9.88338 7.91672 9.70005 8.10005L6.80005 11H20C20.2834 11 20.5209 11.0959 20.7125 11.2875C20.9042 11.4792 21 11.7167 21 12C21 12.2834 20.9042 12.5209 20.7125 12.7125C20.5209 12.9042 20.2834 13 20 13H6.80005Z" fill="#A2B2C2"/>
</g>
</svg>
