<svg xmlns="http://www.w3.org/2000/svg" width="14" height="15" viewBox="0 0 14 15" fill="none">
  <mask id="mask0_12140_9855" style="mask-type:alpha" maskUnits="userSpaceOnUse" x="0" y="0" width="14" height="15">
    <rect y="0.5" width="14" height="14" fill="#D9D9D9"/>
  </mask>
  <g mask="url(#mask0_12140_9855)">
    <path d="M2.91667 11.5833H3.74792L9.45 5.88125L8.61875 5.05L2.91667 10.7521V11.5833ZM2.33333 12.75C2.16806 12.75 2.02951 12.6941 1.91771 12.5823C1.8059 12.4705 1.75 12.3319 1.75 12.1667V10.7521C1.75 10.5965 1.77917 10.4483 1.8375 10.3073C1.89583 10.1663 1.97847 10.0424 2.08542 9.93542L9.45 2.58542C9.56667 2.47847 9.69549 2.39583 9.83646 2.3375C9.97743 2.27917 10.1257 2.25 10.2812 2.25C10.4368 2.25 10.5875 2.27917 10.7333 2.3375C10.8792 2.39583 11.0056 2.48333 11.1125 2.6L11.9146 3.41667C12.0312 3.52361 12.1163 3.65 12.1698 3.79583C12.2233 3.94167 12.25 4.0875 12.25 4.23333C12.25 4.38889 12.2233 4.53715 12.1698 4.67812C12.1163 4.8191 12.0312 4.94792 11.9146 5.06458L4.56458 12.4146C4.45764 12.5215 4.33368 12.6042 4.19271 12.6625C4.05174 12.7208 3.90347 12.75 3.74792 12.75H2.33333ZM9.02708 5.47292L8.61875 5.05L9.45 5.88125L9.02708 5.47292Z" fill="#4E5968"/>
  </g>
</svg>