<svg width="29" height="30" viewBox="0 0 29 30" fill="none" xmlns="http://www.w3.org/2000/svg">
<path d="M13.6215 5.36786C13.5125 5.2525 13.4273 5.1168 13.3707 4.9685C13.3142 4.8202 13.2874 4.66222 13.2919 4.50356C13.2963 4.3449 13.332 4.18868 13.3969 4.04382C13.4618 3.89896 13.5545 3.76829 13.6699 3.65928C13.7852 3.55026 13.9209 3.46504 14.0692 3.40847C14.2175 3.3519 14.3755 3.3251 14.5342 3.32958C14.6928 3.33407 14.8491 3.36977 14.9939 3.43463C15.1388 3.49949 15.2694 3.59225 15.3785 3.70761L25.6493 14.5826C25.8614 14.807 25.9796 15.104 25.9796 15.4127C25.9796 15.7215 25.8614 16.0185 25.6493 16.2429L15.3785 27.1191C15.2702 27.237 15.1395 27.3321 14.9941 27.3991C14.8487 27.4661 14.6915 27.5035 14.5315 27.5092C14.3715 27.5149 14.212 27.4887 14.0622 27.4322C13.9125 27.3757 13.7754 27.2901 13.659 27.1802C13.5426 27.0703 13.4492 26.9383 13.3843 26.792C13.3193 26.6457 13.284 26.488 13.2806 26.3279C13.2771 26.1679 13.3054 26.0088 13.364 25.8598C13.4225 25.7108 13.5101 25.5749 13.6215 25.46L23.1094 15.4127L13.6215 5.36786Z" fill="#0B98FF"/>
</svg>
