<svg width="24" height="24" viewBox="0 0 24 24" fill="none" xmlns="http://www.w3.org/2000/svg">
<g id="fluent:ios-arrow-24-filled">
<path id="Vector" d="M11.2727 3.687C11.1824 3.59153 11.1119 3.47923 11.0651 3.3565C11.0183 3.23377 10.9961 3.10302 10.9998 2.97172C11.0035 2.84042 11.0331 2.71113 11.0868 2.59125C11.1404 2.47136 11.2172 2.36322 11.3127 2.273C11.4081 2.18279 11.5204 2.11226 11.6432 2.06544C11.7659 2.01863 11.8966 1.99644 12.028 2.00016C12.1593 2.00387 12.2885 2.03341 12.4084 2.08709C12.5283 2.14077 12.6364 2.21753 12.7267 2.313L21.2267 11.313C21.4022 11.4987 21.5 11.7445 21.5 12C21.5 12.2555 21.4022 12.5013 21.2267 12.687L12.7267 21.688C12.637 21.7856 12.5289 21.8643 12.4086 21.9198C12.2883 21.9752 12.1581 22.0062 12.0257 22.0109C11.8933 22.0156 11.7613 21.9939 11.6374 21.9472C11.5134 21.9004 11.4 21.8295 11.3037 21.7386C11.2073 21.6476 11.1301 21.5384 11.0763 21.4173C11.0225 21.2963 10.9934 21.1657 10.9905 21.0333C10.9876 20.9008 11.011 20.7691 11.0595 20.6458C11.1079 20.5225 11.1804 20.4101 11.2727 20.315L19.1247 12L11.2727 3.687Z" fill="#0B98FF"/>
</g>
</svg>
