<svg xmlns="http://www.w3.org/2000/svg" width="14" height="15" viewBox="0 0 14 15" fill="none">
  <mask id="mask0_12101_13134" style="mask-type:alpha" maskUnits="userSpaceOnUse" x="0" y="0" width="14" height="15">
    <rect y="0.5" width="14" height="14" fill="#D9D9D9"/>
  </mask>
  <g mask="url(#mask0_12101_13134)">
    <path d="M6.2125 8.2875H2.5375C2.31437 8.2875 2.12734 8.21248 1.97641 8.06243C1.82547 7.91237 1.75 7.72643 1.75 7.50462C1.75 7.28279 1.82547 7.09531 1.97641 6.94219C2.12734 6.78906 2.31437 6.7125 2.5375 6.7125H6.2125V3.0375C6.2125 2.81437 6.28752 2.62734 6.43757 2.47641C6.58763 2.32547 6.77357 2.25 6.99538 2.25C7.21721 2.25 7.40469 2.32547 7.55781 2.47641C7.71094 2.62734 7.7875 2.81437 7.7875 3.0375V6.7125H11.4625C11.6856 6.7125 11.8727 6.78752 12.0236 6.93757C12.1745 7.08763 12.25 7.27357 12.25 7.49538C12.25 7.71721 12.1745 7.90469 12.0236 8.05781C11.8727 8.21094 11.6856 8.2875 11.4625 8.2875H7.7875V11.9625C7.7875 12.1856 7.71248 12.3727 7.56243 12.5236C7.41237 12.6745 7.22643 12.75 7.00462 12.75C6.78279 12.75 6.59531 12.6745 6.44219 12.5236C6.28906 12.3727 6.2125 12.1856 6.2125 11.9625V8.2875Z" fill="#626D7D"/>
  </g>
</svg>