<svg width="20" height="20" viewBox="0 0 20 21" fill="none" xmlns="http://www.w3.org/2000/svg">
<mask id="path-1-inside-1_9605_16209" fill="white">
<path d="M2.78158e-06 10.5C3.2644e-06 4.97715 4.47716 0.500001 10 0.500001C15.5228 0.500002 20 4.97715 20 10.5C20 16.0228 15.5228 20.5 10 20.5C4.47715 20.5 2.29875e-06 16.0228 2.78158e-06 10.5ZM17 10.5C17 6.63401 13.866 3.5 10 3.5C6.13401 3.5 3 6.63401 3 10.5C3 14.366 6.13401 17.5 10 17.5C13.866 17.5 17 14.366 17 10.5Z"/>
</mask>
<path d="M2.78158e-06 10.5C3.2644e-06 4.97715 4.47716 0.500001 10 0.500001C15.5228 0.500002 20 4.97715 20 10.5C20 16.0228 15.5228 20.5 10 20.5C4.47715 20.5 2.29875e-06 16.0228 2.78158e-06 10.5ZM17 10.5C17 6.63401 13.866 3.5 10 3.5C6.13401 3.5 3 6.63401 3 10.5C3 14.366 6.13401 17.5 10 17.5C13.866 17.5 17 14.366 17 10.5Z" stroke="#0B98FF" stroke-width="8" mask="url(#path-1-inside-1_9605_16209)"/>
<mask id="path-2-inside-2_9605_16209" fill="white">
<path d="M10 0.5C11.3132 0.5 12.6136 0.758658 13.8268 1.2612C15.0401 1.76375 16.1425 2.50035 17.0711 3.42893C17.9997 4.35752 18.7362 5.45991 19.2388 6.67317C19.7413 7.88642 20 9.18678 20 10.5L17 10.5C17 9.58075 16.8189 8.6705 16.4672 7.82122C16.1154 6.97194 15.5998 6.20026 14.9497 5.55025C14.2997 4.90024 13.5281 4.38463 12.6788 4.03284C11.8295 3.68106 10.9193 3.5 10 3.5V0.5Z"/>
</mask>
<path d="M10 0.5C11.3132 0.5 12.6136 0.758658 13.8268 1.2612C15.0401 1.76375 16.1425 2.50035 17.0711 3.42893C17.9997 4.35752 18.7362 5.45991 19.2388 6.67317C19.7413 7.88642 20 9.18678 20 10.5L17 10.5C17 9.58075 16.8189 8.6705 16.4672 7.82122C16.1154 6.97194 15.5998 6.20026 14.9497 5.55025C14.2997 4.90024 13.5281 4.38463 12.6788 4.03284C11.8295 3.68106 10.9193 3.5 10 3.5V0.5Z" stroke="#0B98FF" stroke-width="8" mask="url(#path-2-inside-2_9605_16209)"/>
</svg>
