<svg width="24" height="24" viewBox="0 0 24 24" fill="none" xmlns="http://www.w3.org/2000/svg">
<g id="icons/uparrow">
<mask id="mask0_8916_25714" style="mask-type:alpha" maskUnits="userSpaceOnUse" x="0" y="0" width="24" height="24">
<rect id="Bounding box" width="24" height="24" fill="#D9D9D9"/>
</mask>
<g mask="url(#mask0_8916_25714)">
<path id="stat_minus_1" d="M11.9872 8.38695C12.1205 8.38695 12.2455 8.40778 12.3622 8.44945C12.4789 8.49112 12.5872 8.56195 12.6872 8.66195L17.2872 13.262C17.4705 13.4453 17.5664 13.6745 17.5747 13.9495C17.583 14.2245 17.4872 14.462 17.2872 14.662C17.1039 14.8453 16.8705 14.937 16.5872 14.937C16.3039 14.937 16.0705 14.8453 15.8872 14.662L11.9872 10.787L8.0872 14.662C7.90386 14.8453 7.6747 14.9411 7.3997 14.9495C7.1247 14.9578 6.8872 14.862 6.6872 14.662C6.50386 14.4786 6.4122 14.2453 6.4122 13.962C6.4122 13.6786 6.50386 13.4453 6.6872 13.262L11.2872 8.66195C11.3872 8.56195 11.4955 8.49112 11.6122 8.44945C11.7289 8.40778 11.8539 8.38695 11.9872 8.38695Z" fill="#626D7D"/>
</g>
</g>
</svg>
