<svg width="10" height="10" viewBox="0 0 10 10" fill="none" xmlns="http://www.w3.org/2000/svg">
<path d="M4.25 5.75H0.75C0.5375 5.75 0.359375 5.67855 0.215625 5.53565C0.0718751 5.39273 0 5.21565 0 5.0044C0 4.79313 0.0718751 4.61458 0.215625 4.46875C0.359375 4.32292 0.5375 4.25 0.75 4.25H4.25V0.75C4.25 0.5375 4.32145 0.359375 4.46435 0.215624C4.60727 0.0718745 4.78435 0 4.9956 0C5.20687 0 5.38542 0.0718745 5.53125 0.215624C5.67708 0.359375 5.75 0.5375 5.75 0.75V4.25H9.25C9.4625 4.25 9.64063 4.32145 9.78438 4.46435C9.92813 4.60727 10 4.78435 10 4.9956C10 5.20687 9.92813 5.38542 9.78438 5.53125C9.64063 5.67708 9.4625 5.75 9.25 5.75H5.75V9.25C5.75 9.4625 5.67855 9.64062 5.53565 9.78438C5.39273 9.92813 5.21565 10 5.0044 10C4.79313 10 4.61458 9.92813 4.46875 9.78438C4.32292 9.64062 4.25 9.4625 4.25 9.25V5.75Z" fill="white"/>
</svg>
