<svg width="32" height="32" viewBox="0 0 32 32" fill="none" xmlns="http://www.w3.org/2000/svg">
<mask id="mask0_10140_25199" style="mask-type:alpha" maskUnits="userSpaceOnUse" x="0" y="0" width="32" height="32">
<rect width="32" height="32" fill="#D9D9D9"/>
</mask>
<g mask="url(#mask0_10140_25199)">
<path d="M14.2 17.8H5.8C5.29 17.8 4.8625 17.6285 4.5175 17.2856C4.1725 16.9426 4 16.5176 4 16.0106C4 15.5035 4.1725 15.075 4.5175 14.725C4.8625 14.375 5.29 14.2 5.8 14.2H14.2V5.8C14.2 5.29 14.3715 4.8625 14.7145 4.5175C15.0575 4.1725 15.4825 4 15.9895 4C16.4965 4 16.925 4.1725 17.275 4.5175C17.625 4.8625 17.8 5.29 17.8 5.8V14.2H26.2C26.71 14.2 27.1375 14.3715 27.4825 14.7145C27.8275 15.0575 28 15.4825 28 15.9895C28 16.4965 27.8275 16.925 27.4825 17.275C27.1375 17.625 26.71 17.8 26.2 17.8H17.8V26.2C17.8 26.71 17.6285 27.1375 17.2856 27.4825C16.9426 27.8275 16.5176 28 16.0106 28C15.5035 28 15.075 27.8275 14.725 27.4825C14.375 27.1375 14.2 26.71 14.2 26.2V17.8Z" fill="#A2B2C2"/>
</g>
</svg>
