<svg width="76" height="76" viewBox="0 0 76 76" fill="none" xmlns="http://www.w3.org/2000/svg">
<g filter="url(#filter0_i_9171_3046)">
<circle cx="38" cy="38" r="38" fill="url(#paint0_linear_9171_3046)"/>
</g>
<rect x="56.375" y="29.5488" width="12.0264" height="5.96199" rx="2.98099" transform="rotate(90 56.375 29.5488)" fill="#646CCD" fill-opacity="0.8"/>
<path d="M46.6201 56.3828C47.8941 56.1423 49.0996 57.0992 49.0996 58.3956C49.0996 59.8748 48.0725 61.1664 46.6155 61.4218C40.2459 62.5386 35.0535 62.2468 29.3792 61.1485C27.9258 60.8672 26.9008 59.5759 26.9008 58.0955C26.9008 56.8116 28.1113 55.8746 29.3663 56.1451C35.5206 57.4717 40.5021 57.5375 46.6201 56.3828Z" fill="#9095CE" fill-opacity="0.5"/>
<rect width="12.0264" height="5.96199" rx="2.98099" transform="matrix(-4.37114e-08 1 1 4.37114e-08 19.625 29.5488)" fill="#646CCD" fill-opacity="0.8"/>
<defs>
<filter id="filter0_i_9171_3046" x="-1" y="0" width="77" height="83" filterUnits="userSpaceOnUse" color-interpolation-filters="sRGB">
<feFlood flood-opacity="0" result="BackgroundImageFix"/>
<feBlend mode="normal" in="SourceGraphic" in2="BackgroundImageFix" result="shape"/>
<feColorMatrix in="SourceAlpha" type="matrix" values="0 0 0 0 0 0 0 0 0 0 0 0 0 0 0 0 0 0 127 0" result="hardAlpha"/>
<feMorphology radius="5" operator="erode" in="SourceAlpha" result="effect1_innerShadow_9171_3046"/>
<feOffset dx="-1" dy="7"/>
<feGaussianBlur stdDeviation="2.4"/>
<feComposite in2="hardAlpha" operator="arithmetic" k2="-1" k3="1"/>
<feColorMatrix type="matrix" values="0 0 0 0 0 0 0 0 0 0 0 0 0 0 0 0 0 0 0.04 0"/>
<feBlend mode="normal" in2="shape" result="effect1_innerShadow_9171_3046"/>
</filter>
<linearGradient id="paint0_linear_9171_3046" x1="4.1152" y1="20.6582" x2="85.2387" y2="51.3945" gradientUnits="userSpaceOnUse">
<stop stop-color="#E4F3FF"/>
<stop offset="1" stop-color="#EAE1FF"/>
</linearGradient>
</defs>
</svg>
