<svg width="44" height="44" viewBox="0 0 44 44" fill="none" xmlns="http://www.w3.org/2000/svg">
<rect x="15" y="16" width="15" height="12" fill="white"/>
<path d="M20.25 24.25L17.5625 21.5625C17.3333 21.3333 17.0417 21.2188 16.6875 21.2188C16.3333 21.2188 16.0417 21.3333 15.8125 21.5625C15.5833 21.7917 15.4688 22.0833 15.4688 22.4375C15.4688 22.7917 15.5833 23.0833 15.8125 23.3125L19.375 26.875C19.625 27.125 19.9167 27.25 20.25 27.25C20.5833 27.25 20.875 27.125 21.125 26.875L28.1875 19.8125C28.4167 19.5833 28.5313 19.2917 28.5313 18.9375C28.5313 18.5833 28.4167 18.2917 28.1875 18.0625C27.9583 17.8333 27.6667 17.7188 27.3125 17.7188C26.9583 17.7188 26.6667 17.8333 26.4375 18.0625L20.25 24.25ZM22 34.5C20.2708 34.5 18.6458 34.1719 17.125 33.5156C15.6042 32.8594 14.2812 31.9688 13.1562 30.8438C12.0312 29.7188 11.1406 28.3958 10.4844 26.875C9.82812 25.3542 9.5 23.7292 9.5 22C9.5 20.2708 9.82812 18.6458 10.4844 17.125C11.1406 15.6042 12.0312 14.2812 13.1562 13.1562C14.2812 12.0312 15.6042 11.1406 17.125 10.4844C18.6458 9.82812 20.2708 9.5 22 9.5C23.7292 9.5 25.3542 9.82812 26.875 10.4844C28.3958 11.1406 29.7188 12.0312 30.8438 13.1562C31.9688 14.2812 32.8594 15.6042 33.5156 17.125C34.1719 18.6458 34.5 20.2708 34.5 22C34.5 23.7292 34.1719 25.3542 33.5156 26.875C32.8594 28.3958 31.9688 29.7188 30.8438 30.8438C29.7188 31.9688 28.3958 32.8594 26.875 33.5156C25.3542 34.1719 23.7292 34.5 22 34.5Z" fill="#0B98FF"/>
</svg>
