<svg width="58" height="58" viewBox="0 0 58 58" fill="none" xmlns="http://www.w3.org/2000/svg">
<g filter="url(#filter0_d_8747_26498)">
<path d="M26.5058 32.1912L22.8017 28.4871C22.5022 28.1876 22.1311 28.0379 21.6883 28.0379C21.2453 28.0379 20.8631 28.1969 20.5417 28.515C20.2419 28.8189 20.0926 29.1921 20.0938 29.6346C20.0949 30.0771 20.2475 30.4481 20.5517 30.7475L25.3908 35.6146C25.7092 35.9301 26.0804 36.0879 26.5046 36.0879C26.929 36.0879 27.3011 35.9301 27.6208 35.6146L37.2692 25.9596C37.5917 25.6415 37.7529 25.2628 37.7529 24.8233C37.7529 24.3836 37.5917 24.0031 37.2692 23.6817C36.9511 23.3822 36.566 23.2371 36.1138 23.2462C35.6615 23.2554 35.284 23.4099 34.9813 23.7096L26.5058 32.1912ZM28.9467 45.8983C26.6147 45.8983 24.4183 45.4544 22.3575 44.5667C20.2967 43.6789 18.499 42.4679 16.9646 40.9338C15.4304 39.3993 14.2194 37.6019 13.3317 35.5417C12.4439 33.4814 12 31.2853 12 28.9533C12 26.6031 12.4439 24.3974 13.3317 22.3363C14.2194 20.2754 15.4301 18.4824 16.9637 16.9571C18.4974 15.4318 20.2944 14.2243 22.355 13.3346C24.4156 12.4449 26.6119 12 28.9442 12C31.295 12 33.5013 12.4447 35.5629 13.3342C37.6243 14.2236 39.4174 15.4307 40.9421 16.9554C42.4671 18.4799 43.6743 20.2726 44.5638 22.3338C45.4535 24.3949 45.8983 26.6011 45.8983 28.9525C45.8983 31.285 45.4535 33.4817 44.5638 35.5425C43.674 37.6033 42.4665 39.4007 40.9413 40.9346C39.416 42.4682 37.6232 43.6789 35.5629 44.5667C33.5026 45.4544 31.2972 45.8983 28.9467 45.8983Z" fill="#0B98FF"/>
</g>
<defs>
<filter id="filter0_d_8747_26498" x="0.8" y="0.8" width="56.2984" height="56.2983" filterUnits="userSpaceOnUse" color-interpolation-filters="sRGB">
<feFlood flood-opacity="0" result="BackgroundImageFix"/>
<feColorMatrix in="SourceAlpha" type="matrix" values="0 0 0 0 0 0 0 0 0 0 0 0 0 0 0 0 0 0 127 0" result="hardAlpha"/>
<feOffset/>
<feGaussianBlur stdDeviation="5.6"/>
<feComposite in2="hardAlpha" operator="out"/>
<feColorMatrix type="matrix" values="0 0 0 0 1 0 0 0 0 1 0 0 0 0 1 0 0 0 1 0"/>
<feBlend mode="normal" in2="BackgroundImageFix" result="effect1_dropShadow_8747_26498"/>
<feBlend mode="normal" in="SourceGraphic" in2="effect1_dropShadow_8747_26498" result="shape"/>
</filter>
</defs>
</svg>
