<svg width="32" height="32" viewBox="0 0 32 32" fill="none" xmlns="http://www.w3.org/2000/svg">
<circle cx="16" cy="16" r="16" fill="#0B98FF"/>
<path d="M24.3798 10.5008C24.5841 10.7053 24.6988 10.9826 24.6988 11.2717C24.6988 11.5608 24.5841 11.8381 24.3798 12.0426L13.8343 22.5881C13.6298 22.7924 13.3525 22.9071 13.0634 22.9071C12.7743 22.9071 12.497 22.7924 12.2925 22.5881L7.56521 17.8608C7.37262 17.6539 7.26774 17.3803 7.27262 17.0977C7.27751 16.8151 7.39177 16.5453 7.5914 16.3452C7.79155 16.1455 8.06129 16.0313 8.34393 16.0264C8.62658 16.0215 8.90011 16.1264 9.10703 16.319L13.0634 20.2753L22.8379 10.5008C23.0425 10.2965 23.3198 10.1818 23.6088 10.1818C23.8979 10.1818 24.1752 10.2965 24.3798 10.5008Z" fill="#F8F8F8"/>
</svg>
