<svg width="44" height="45" viewBox="0 0 44 45" fill="none" xmlns="http://www.w3.org/2000/svg">
<path d="M20.25 24.2969L17.5625 21.6094C17.3333 21.3802 17.0417 21.2656 16.6875 21.2656C16.3333 21.2656 16.0417 21.3802 15.8125 21.6094C15.5833 21.8385 15.4688 22.1302 15.4688 22.4844C15.4688 22.8385 15.5833 23.1302 15.8125 23.3594L19.375 26.9219C19.625 27.1719 19.9167 27.2969 20.25 27.2969C20.5833 27.2969 20.875 27.1719 21.125 26.9219L28.1875 19.8594C28.4167 19.6302 28.5312 19.3385 28.5312 18.9844C28.5312 18.6302 28.4167 18.3385 28.1875 18.1094C27.9583 17.8802 27.6667 17.7656 27.3125 17.7656C26.9583 17.7656 26.6667 17.8802 26.4375 18.1094L20.25 24.2969ZM22 34.5469C20.2708 34.5469 18.6458 34.2188 17.125 33.5625C15.6042 32.9062 14.2812 32.0156 13.1562 30.8906C12.0312 29.7656 11.1406 28.4427 10.4844 26.9219C9.82812 25.401 9.5 23.776 9.5 22.0469C9.5 20.3177 9.82812 18.6927 10.4844 17.1719C11.1406 15.651 12.0312 14.3281 13.1562 13.2031C14.2812 12.0781 15.6042 11.1875 17.125 10.5312C18.6458 9.875 20.2708 9.54688 22 9.54688C23.7292 9.54688 25.3542 9.875 26.875 10.5312C28.3958 11.1875 29.7188 12.0781 30.8438 13.2031C31.9688 14.3281 32.8594 15.651 33.5156 17.1719C34.1719 18.6927 34.5 20.3177 34.5 22.0469C34.5 23.776 34.1719 25.401 33.5156 26.9219C32.8594 28.4427 31.9688 29.7656 30.8438 30.8906C29.7188 32.0156 28.3958 32.9062 26.875 33.5625C25.3542 34.2188 23.7292 34.5469 22 34.5469Z" fill="#0B98FF"/>
</svg>
