<svg width="44" height="44" viewBox="0 0 44 44" fill="none" xmlns="http://www.w3.org/2000/svg">
<rect x="13" y="13" width="18" height="18" rx="9" fill="#E4EAF0"/>
<mask id="mask0_9067_25698" style="mask-type:alpha" maskUnits="userSpaceOnUse" x="13" y="13" width="18" height="18">
<rect x="13" y="13" width="18" height="18" fill="#1C1B1F"/>
</mask>
<g mask="url(#mask0_9067_25698)">
<path d="M21.9996 23.0484L19.8246 25.2234C19.6871 25.3609 19.5121 25.4297 19.2996 25.4297C19.0871 25.4297 18.9121 25.3609 18.7746 25.2234C18.6371 25.0859 18.5684 24.9109 18.5684 24.6984C18.5684 24.4859 18.6371 24.3109 18.7746 24.1734L20.9496 21.9984L18.7746 19.8422C18.6371 19.7047 18.5684 19.5297 18.5684 19.3172C18.5684 19.1047 18.6371 18.9297 18.7746 18.7922C18.9121 18.6547 19.0871 18.5859 19.2996 18.5859C19.5121 18.5859 19.6871 18.6547 19.8246 18.7922L21.9996 20.9672L24.1559 18.7922C24.2934 18.6547 24.4684 18.5859 24.6809 18.5859C24.8934 18.5859 25.0684 18.6547 25.2059 18.7922C25.3559 18.9422 25.4309 19.1203 25.4309 19.3266C25.4309 19.5328 25.3559 19.7047 25.2059 19.8422L23.0309 21.9984L25.2059 24.1734C25.3434 24.3109 25.4121 24.4859 25.4121 24.6984C25.4121 24.9109 25.3434 25.0859 25.2059 25.2234C25.0559 25.3734 24.8777 25.4484 24.6715 25.4484C24.4652 25.4484 24.2934 25.3734 24.1559 25.2234L21.9996 23.0484Z" fill="#333D4B"/>
</g>
</svg>
