<svg width="25" height="24" viewBox="0 0 25 24" fill="none" xmlns="http://www.w3.org/2000/svg">
<g id="icons/downarrow">
<mask id="mask0_8916_25661" style="mask-type:alpha" maskUnits="userSpaceOnUse" x="0" y="0" width="25" height="24">
<rect id="Bounding box" x="0.5" width="24" height="24" fill="#D9D9D9"/>
</mask>
<g mask="url(#mask0_8916_25661)">
<path id="stat_minus_1" d="M12.5001 14.95C12.3668 14.95 12.2418 14.9291 12.1251 14.8875C12.0084 14.8458 11.9001 14.775 11.8001 14.675L7.20011 10.075C7.01678 9.89163 6.92094 9.66246 6.91261 9.38746C6.90428 9.11246 7.00011 8.87496 7.20011 8.67496C7.38344 8.49163 7.61678 8.39996 7.90011 8.39996C8.18344 8.39996 8.41678 8.49163 8.60011 8.67496L12.5001 12.55L16.4001 8.67496C16.5834 8.49163 16.8126 8.3958 17.0876 8.38746C17.3626 8.37913 17.6001 8.47496 17.8001 8.67496C17.9834 8.8583 18.0751 9.09163 18.0751 9.37496C18.0751 9.6583 17.9834 9.89163 17.8001 10.075L13.2001 14.675C13.1001 14.775 12.9918 14.8458 12.8751 14.8875C12.7584 14.9291 12.6334 14.95 12.5001 14.95Z" fill="#626D7D"/>
</g>
</g>
</svg>
