<svg width="25" height="25" viewBox="0 0 25 25" fill="none" xmlns="http://www.w3.org/2000/svg">
<mask id="mask0_9465_25834" style="mask-type:alpha" maskUnits="userSpaceOnUse" x="0" y="0" width="25" height="25">
<rect x="0.5" y="0.5" width="24" height="24" fill="#D9D9D9"/>
</mask>
<g mask="url(#mask0_9465_25834)">
<path d="M12.5001 15.4497C12.3668 15.4497 12.2418 15.4289 12.1251 15.3872C12.0084 15.3456 11.9001 15.2747 11.8001 15.1747L7.20011 10.5747C7.01678 10.3914 6.92094 10.1622 6.91261 9.88722C6.90428 9.61222 7.00011 9.37472 7.20011 9.17472C7.38344 8.99139 7.61678 8.89972 7.90011 8.89972C8.18344 8.89972 8.41678 8.99139 8.60011 9.17472L12.5001 13.0497L16.4001 9.17472C16.5834 8.99139 16.8126 8.89555 17.0876 8.88722C17.3626 8.87889 17.6001 8.97472 17.8001 9.17472C17.9834 9.35805 18.0751 9.59139 18.0751 9.87472C18.0751 10.1581 17.9834 10.3914 17.8001 10.5747L13.2001 15.1747C13.1001 15.2747 12.9918 15.3456 12.8751 15.3872C12.7584 15.4289 12.6334 15.4497 12.5001 15.4497Z" fill="#626D7D"/>
</g>
</svg>
