<svg width="19" height="11" viewBox="0 0 19 11" fill="none" xmlns="http://www.w3.org/2000/svg">
<path d="M9.43054 10.8055C9.24535 10.8055 9.07405 10.7755 8.91667 10.7153C8.75925 10.6551 8.60647 10.5509 8.45833 10.4028L0.40275 2.34721C0.13425 2.07871 0 1.75464 0 1.375C0 0.995361 0.13425 0.671291 0.40275 0.402791C0.671278 0.134264 0.999986 0 1.38887 0C1.77776 0 2.10646 0.134264 2.37496 0.402791L9.43054 7.45838L16.4861 0.402791C16.7546 0.134264 17.0787 0 17.4583 0C17.8379 0 18.162 0.134264 18.4305 0.402791C18.6991 0.671291 18.8333 0.999986 18.8333 1.38888C18.8333 1.77776 18.6991 2.10647 18.4305 2.375L10.4028 10.4028C10.2546 10.5509 10.1018 10.6551 9.94442 10.7153C9.78703 10.7755 9.61574 10.8055 9.43054 10.8055Z" fill="currentColor"/>
</svg>
