<svg width="11" height="21" viewBox="0 0 11 21" fill="none" xmlns="http://www.w3.org/2000/svg">
<path d="M10.2273 1.68725C10.3176 1.59178 10.3881 1.47947 10.4349 1.35674C10.4817 1.23401 10.5039 1.10327 10.5002 0.971965C10.4965 0.840663 10.4669 0.711378 10.4132 0.591492C10.3596 0.471606 10.2828 0.363467 10.1873 0.273249C10.0919 0.183031 9.97956 0.112501 9.85683 0.0656852C9.7341 0.0188697 9.60335 -0.00331434 9.47205 0.000400002C9.34075 0.00411435 9.21146 0.0336542 9.09158 0.0873329C8.97169 0.141012 8.86355 0.217778 8.77333 0.313249L0.273335 9.31325C0.0977985 9.49892 -9.23755e-06 9.74474 -9.23755e-06 10.0002C-9.23755e-06 10.2558 0.0977985 10.5016 0.273335 10.6872L8.77333 19.6882C8.86296 19.7858 8.97107 19.8646 9.0914 19.92C9.21172 19.9754 9.34186 20.0064 9.47426 20.0111C9.60665 20.0158 9.73866 19.9942 9.86262 19.9474C9.98658 19.9007 10.1 19.8298 10.1963 19.7388C10.2927 19.6479 10.3699 19.5387 10.4237 19.4176C10.4775 19.2965 10.5066 19.166 10.5095 19.0335C10.5124 18.9011 10.489 18.7694 10.4405 18.6461C10.3921 18.5228 10.3196 18.4103 10.2273 18.3153L2.37533 10.0002L10.2273 1.68725Z" fill="#0B98FF"/>
</svg>
