<svg xmlns="http://www.w3.org/2000/svg" width="19" height="18" viewBox="0 0 19 18" fill="none">
  <mask id="mask0_12145_18621" style="mask-type:alpha" maskUnits="userSpaceOnUse" x="0" y="0" width="19" height="18">
    <rect x="0.5" width="18" height="18" fill="#D9D9D9"/>
  </mask>
  <g mask="url(#mask0_12145_18621)">
    <path d="M3.63068 15.7508C3.36818 15.8133 3.14005 15.7477 2.9463 15.5539C2.75255 15.3602 2.68693 15.132 2.74943 14.8695L3.49943 11.2883L7.21193 15.0008L3.63068 15.7508ZM7.21193 15.0008L3.49943 11.2883L12.0869 2.70078C12.3744 2.41328 12.7307 2.26953 13.1557 2.26953C13.5807 2.26953 13.9369 2.41328 14.2244 2.70078L15.7994 4.27578C16.0869 4.56328 16.2307 4.91953 16.2307 5.34453C16.2307 5.76953 16.0869 6.12578 15.7994 6.41328L7.21193 15.0008ZM13.1557 3.75078L5.39318 11.5133L6.98693 13.107L14.7494 5.34453L13.1557 3.75078Z" fill="#4E5968"/>
  </g>
</svg>