<svg width="22" height="22" viewBox="0 0 22 22" fill="none" xmlns="http://www.w3.org/2000/svg">
<mask id="mask0_10618_25653" style="mask-type:alpha" maskUnits="userSpaceOnUse" x="0" y="0" width="22" height="22">
<rect width="22" height="22" fill="#D9D9D9"/>
</mask>
<g mask="url(#mask0_10618_25653)">
<path fill-rule="evenodd" clip-rule="evenodd" d="M15.2779 9.51045C15.2779 12.1672 13.1242 14.3209 10.4675 14.3209C7.81074 14.3209 5.65703 12.1672 5.65703 9.51045C5.65703 6.85371 7.81074 4.7 10.4675 4.7C13.1242 4.7 15.2779 6.85371 15.2779 9.51045ZM13.8352 15.0833C12.8526 15.6784 11.7001 16.0209 10.4675 16.0209C6.87186 16.0209 3.95703 13.1061 3.95703 9.51045C3.95703 5.91483 6.87186 3 10.4675 3C14.0631 3 16.9779 5.91483 16.9779 9.51045C16.9779 11.2576 16.2897 12.8441 15.1695 14.0134L18.582 17.4259C18.914 17.7579 18.914 18.2961 18.582 18.628C18.2501 18.96 17.7119 18.96 17.3799 18.628L13.8352 15.0833Z" fill="#818D9D"/>
</g>
</svg>
