<svg width="16" height="14" viewBox="0 0 16 14" fill="none" xmlns="http://www.w3.org/2000/svg">
  <!-- 원래 경로를 따라 전체 테두리를 그립니다. -->
  <path d="M8.48706 0.815148C8.52425 0.654879 8.56386 0.564262 8.59075 0.517058C8.63178 0.53635 8.69791 0.575442 8.79049 0.652202C8.93049 0.768272 9.09579 0.940847 9.28365 1.17231C10.0433 2.10819 10.9912 3.77743 11.9291 5.62605C12.8609 7.46257 13.7631 9.43594 14.4333 10.9525C14.7681 11.7102 15.0445 12.3528 15.2371 12.8057C15.2405 12.8136 15.2439 12.8215 15.2472 12.8293H1.05618C1.18893 12.6648 1.33819 12.4784 1.50112 12.273C2.17648 11.4215 3.08796 10.2403 4.03151 8.92277C4.97433 7.60625 5.95339 6.14774 6.76157 4.74228C7.56468 3.34564 8.21996 1.96609 8.48706 0.815148Z" fill="white" stroke="#4E5968"/>

  <!-- 아래 경로를 다시 그려서 하단 경계선만 흰색으로 덮어씁니다. -->
  <path d="M15.2472 12.8293H1.05618C1.18893 12.6648 1.33819 12.4784 1.50112 12.273C2.17648 11.4215 3.08796 10.2403 4.03151 8.92277C4.97433 7.60625 5.95339 6.14774 6.76157 4.74228C7.56468 3.34564 8.21996 1.96609 8.48706 0.815148C8.52425 0.654879 8.56386 0.564262 8.59075 0.517058C8.63178 0.53635 8.69791 0.575442 8.79049 0.652202C8.93049 0.768272 9.09579 0.940847 9.28365 1.17231C10.0433 2.10819 10.9912 3.77743 11.9291 5.62605C12.8609 7.46257 13.7631 9.43594 14.4333 10.9525C14.7681 11.7102 15.0445 12.3528 15.2371 12.8057C15.2405 12.8136 15.2439 12.8215 15.2472 12.8293Z" fill="none" stroke="white"/>
</svg>
