<svg width="29" height="18" viewBox="0 0 29 18" fill="none" xmlns="http://www.w3.org/2000/svg">
<path d="M14.4871 0.815148C14.5243 0.654879 14.5639 0.564262 14.5908 0.517058C14.6318 0.53635 14.6979 0.575442 14.7905 0.652202C14.9305 0.768272 15.0958 0.940847 15.2837 1.17231C16.0433 2.10819 16.9912 3.77743 17.9291 5.62605C18.8609 7.46257 19.7631 9.43594 20.4333 10.9525C20.7681 11.7102 21.0445 12.3528 21.2371 12.8057C21.2405 12.8136 21.2439 12.8215 21.2472 12.8293H7.05618C7.18893 12.6648 7.33819 12.4784 7.50112 12.273C8.17648 11.4215 9.08796 10.2403 10.0315 8.92277C10.9743 7.60625 11.9534 6.14774 12.7616 4.74228C13.5647 3.34564 14.22 1.96609 14.4871 0.815148Z" fill="white" stroke="#4E5968"/>
<rect y="10" width="29" height="8" fill="white"/>
</svg>
