<svg width="16" height="14" viewBox="0 0 16 14" fill="none" xmlns="http://www.w3.org/2000/svg">
<path d="M8.48706 1.30343C8.52425 1.14316 8.56386 1.05254 8.59075 1.00534C8.63178 1.02463 8.69791 1.06372 8.79049 1.14048C8.93049 1.25655 9.09579 1.42913 9.28365 1.66059C10.0433 2.59648 10.9912 4.26571 11.9291 6.11433C12.8609 7.95085 13.7631 9.92422 14.4333 11.4407C14.7681 12.1985 15.0445 12.8411 15.2371 13.294C15.2405 13.3019 15.2439 13.3098 15.2472 13.3176H1.05618C1.18893 13.1531 1.33819 12.9667 1.50112 12.7613C2.17648 11.9097 3.08796 10.7286 4.03151 9.41105C4.97433 8.09453 5.95339 6.63602 6.76157 5.23056C7.56468 3.83392 8.21996 2.45437 8.48706 1.30343Z" fill="white" stroke="#D0D9E2"/>
</svg>
