<svg width="18" height="13" viewBox="0 0 18 13" fill="none" xmlns="http://www.w3.org/2000/svg">
<path d="M17.1073 0.31904C17.3116 0.523586 17.4263 0.800857 17.4263 1.08995C17.4263 1.37904 17.3116 1.65631 17.1073 1.86086L6.56184 12.4063C6.3573 12.6106 6.08003 12.7254 5.79093 12.7254C5.50184 12.7254 5.22457 12.6106 5.02002 12.4063L0.292753 7.67904C0.100158 7.47211 -0.00471937 7.19859 0.000163136 6.91594C0.00504564 6.6333 0.119308 6.36355 0.318934 6.1634C0.519085 5.96378 0.788829 5.84951 1.07147 5.84463C1.35412 5.83975 1.62765 5.94463 1.83457 6.13722L5.79093 10.0936L15.5655 0.31904C15.77 0.114748 16.0473 0 16.3364 0C16.6255 0 16.9028 0.114748 17.1073 0.31904Z" fill="#D1D6DB"/>
</svg>
