<svg width="30" height="30" viewBox="0 0 30 30" fill="none" xmlns="http://www.w3.org/2000/svg">
<mask id="mask0_8742_24279" style="mask-type:alpha" maskUnits="userSpaceOnUse" x="0" y="0" width="30" height="30">
<rect width="30" height="30" fill="#D9D9D9"/>
</mask>
<g mask="url(#mask0_8742_24279)">
<path d="M10.1921 16.4219L16.0258 22.2553C16.3106 22.5403 16.449 22.8744 16.4411 23.2575C16.4332 23.6407 16.2868 23.9746 16.0021 24.2594C15.7171 24.5236 15.383 24.6596 14.9999 24.6675C14.6167 24.6755 14.2827 24.537 13.9977 24.2522L5.74768 16.0022C5.60788 15.8622 5.5057 15.7068 5.44111 15.536C5.37653 15.3653 5.34424 15.1867 5.34424 15C5.34424 14.8134 5.37653 14.6347 5.44111 14.4641C5.5057 14.2933 5.60788 14.1378 5.74768 13.9978L14.0052 5.74066C14.2743 5.4715 14.6032 5.33691 14.9917 5.33691C15.3803 5.33691 15.7171 5.4715 16.0021 5.74066C16.2868 6.02546 16.4292 6.36337 16.4292 6.75441C16.4292 7.14546 16.2868 7.48348 16.0021 7.76848L10.1921 13.5782H23.8321C24.231 13.5782 24.5678 13.7153 24.8424 13.9897C25.1167 14.2643 25.2539 14.6011 25.2539 15C25.2539 15.399 25.1167 15.7358 24.8424 16.0103C24.5678 16.2847 24.231 16.4219 23.8321 16.4219H10.1921Z" fill="#4E5968"/>
</g>
</svg>
