<svg width="24" height="24" viewBox="0 0 24 24" fill="none" xmlns="http://www.w3.org/2000/svg">
<mask id="mask0_9112_723" style="mask-type:alpha" maskUnits="userSpaceOnUse" x="0" y="0" width="24" height="24">
<rect width="24" height="24" fill="#D9D9D9"/>
</mask>
<g mask="url(#mask0_9112_723)">
<path d="M17.625 11.0002L14.725 8.10019C14.5417 7.91686 14.45 7.68353 14.45 7.40019C14.45 7.11686 14.5417 6.88353 14.725 6.70019C14.9083 6.51686 15.1417 6.42519 15.425 6.42519C15.7083 6.42519 15.9417 6.51686 16.125 6.70019L20.725 11.3002C20.825 11.4002 20.8958 11.5085 20.9375 11.6252C20.9792 11.7419 21 11.8669 21 12.0002C21 12.1335 20.9792 12.2585 20.9375 12.3752C20.8958 12.4919 20.825 12.6002 20.725 12.7002L16.125 17.3002C15.9417 17.4835 15.7083 17.5752 15.425 17.5752C15.1417 17.5752 14.9083 17.4835 14.725 17.3002C14.5417 17.1169 14.45 16.8835 14.45 16.6002C14.45 16.3169 14.5417 16.0835 14.725 15.9002L17.625 13.0002L4.425 13.0002C4.14167 13.0002 3.90417 12.9044 3.7125 12.7127C3.52083 12.521 3.425 12.2835 3.425 12.0002C3.425 11.7169 3.52083 11.4794 3.7125 11.2877C3.90417 11.096 4.14167 11.0002 4.425 11.0002L17.625 11.0002Z" fill="white"/>
</g>
</svg>
