<svg width="24" height="24" viewBox="0 0 24 24" fill="none" xmlns="http://www.w3.org/2000/svg">
<path id="search" d="M8.79736 17.504C6.33862 17.504 4.2577 16.6519 2.55462 14.9476C0.851541 13.2433 0 11.1781 0 8.75203C0 6.32595 0.852153 4.26076 2.55646 2.55646C4.26074 0.852152 6.32971 0 8.76335 0C11.197 0 13.2622 0.852152 14.9589 2.55646C16.6556 4.26076 17.504 6.32709 17.504 8.75543C17.504 9.73567 17.3453 10.6755 17.0279 11.5749C16.7104 12.4743 16.2494 13.3018 15.6448 14.0576L23.6712 22.0388C23.8904 22.2512 24 22.5216 24 22.8499C24 23.1783 23.8904 23.4521 23.6712 23.6712C23.452 23.8904 23.1783 24 22.8499 24C22.5216 24 22.2512 23.8904 22.0387 23.6712L14.035 15.6675C13.3548 16.2418 12.5653 16.6915 11.6665 17.0165C10.7677 17.3415 9.81135 17.504 8.79736 17.504ZM8.77468 15.2367C10.5697 15.2367 12.0954 14.6037 13.3519 13.3377C14.6084 12.0718 15.2366 10.5432 15.2366 8.75203C15.2366 6.96079 14.6084 5.43221 13.3519 4.16627C12.0954 2.90034 10.5697 2.26737 8.77468 2.26737C6.96709 2.26737 5.43064 2.90034 4.16532 4.16627C2.9 5.43221 2.26734 6.96079 2.26734 8.75203C2.26734 10.5432 2.9 12.0718 4.16532 13.3377C5.43064 14.6037 6.96709 15.2367 8.77468 15.2367Z" fill="white"/>
</svg>
