<svg xmlns="http://www.w3.org/2000/svg" width="19" height="18" viewBox="0 0 19 18" fill="none">
  <mask id="mask0_12145_15891" style="mask-type:alpha" maskUnits="userSpaceOnUse" x="0" y="0" width="19" height="18">
    <rect x="0.5" width="18" height="18" fill="#D9D9D9"/>
  </mask>
  <g mask="url(#mask0_12145_15891)">
    <path d="M5.75 15.75C5.3375 15.75 4.98438 15.6031 4.69062 15.3094C4.39687 15.0156 4.25 14.6625 4.25 14.25V4.5H3.5V3H7.25V2.25H11.75V3H15.5V4.5H14.75V14.25C14.75 14.6625 14.6031 15.0156 14.3094 15.3094C14.0156 15.6031 13.6625 15.75 13.25 15.75H5.75ZM13.25 4.5H5.75V14.25H13.25V4.5ZM7.25 12.75H8.75V6H7.25V12.75ZM10.25 12.75H11.75V6H10.25V12.75Z" fill="#EB444C"/>
  </g>
</svg>