<svg width="24" height="24" viewBox="0 0 24 24" fill="none" xmlns="http://www.w3.org/2000/svg">
<mask id="mask0_10517_24415" style="mask-type:alpha" maskUnits="userSpaceOnUse" x="0" y="0" width="24" height="24">
<rect width="24" height="24" fill="#D9D9D9"/>
</mask>
<g mask="url(#mask0_10517_24415)">
<path d="M9.1556 15.8035L19.0211 5.6108C19.2539 5.37027 19.5255 5.25 19.8359 5.25C20.1463 5.25 20.418 5.37027 20.6508 5.6108C20.8836 5.85134 21 6.13697 21 6.46771C21 6.79844 20.8836 7.08408 20.6508 7.32461L9.97045 18.3892C9.73763 18.6297 9.46602 18.75 9.1556 18.75C8.84518 18.75 8.57356 18.6297 8.34075 18.3892L3.33525 13.2177C3.10244 12.9772 2.99088 12.6915 3.00058 12.3608C3.01028 12.0301 3.13154 11.7444 3.36435 11.5039C3.59717 11.2634 3.87363 11.1431 4.19375 11.1431C4.51387 11.1431 4.79034 11.2634 5.02315 11.5039L9.1556 15.8035Z" fill="#0B98FF"/>
</g>
</svg>
