<svg xmlns="http://www.w3.org/2000/svg" width="25" height="25" viewBox="0 0 25 25" fill="none">
  <mask id="mask0_10247_26156" style="mask-type:alpha" maskUnits="userSpaceOnUse" x="0" y="0" width="25" height="25">
    <rect x="0.5" y="0.5" width="24" height="24" fill="#D9D9D9"/>
  </mask>
  <g mask="url(#mask0_10247_26156)">
    <path d="M15.7739 12.162C15.7739 12.2953 15.7531 12.4203 15.7114 12.537C15.6698 12.6537 15.5989 12.762 15.4989 12.862L10.8989 17.462C10.7156 17.6453 10.4864 17.7412 10.2114 17.7495C9.93644 17.7578 9.69894 17.662 9.49894 17.462C9.3156 17.2787 9.22394 17.0453 9.22394 16.762C9.22394 16.4787 9.3156 16.2453 9.49894 16.062L13.3739 12.162L9.49894 8.262C9.3156 8.07867 9.21977 7.8495 9.21144 7.5745C9.2031 7.2995 9.29894 7.062 9.49894 6.862C9.68227 6.67867 9.9156 6.587 10.1989 6.587C10.4823 6.587 10.7156 6.67867 10.8989 6.862L15.4989 11.462C15.5989 11.562 15.6698 11.6703 15.7114 11.787C15.7531 11.9037 15.7739 12.0287 15.7739 12.162Z" fill="#A2B2C2"/>
  </g>
</svg>