<svg width="22" height="22" viewBox="0 0 22 22" fill="none" xmlns="http://www.w3.org/2000/svg">
<path id="close_small" d="M10.9993 13.0149L3.76587 20.4945C3.44367 20.8277 3.05479 20.9943 2.59922 20.9943C2.14369 20.9943 1.7548 20.8277 1.43257 20.4945C1.11033 20.1613 0.949219 19.7592 0.949219 19.2882C0.949219 18.8171 1.11033 18.415 1.43257 18.0818L8.66597 10.6022L1.43257 3.17425C1.11033 2.84108 0.949219 2.43896 0.949219 1.96789C0.949219 1.49685 1.11033 1.09472 1.43257 0.761522C1.7548 0.42832 2.14369 0.261719 2.59922 0.261719C3.05479 0.261719 3.44367 0.42832 3.76587 0.761522L10.9993 8.24115L18.1827 0.761522C18.4826 0.42832 18.866 0.261719 19.3326 0.261719C19.7993 0.261719 20.1937 0.42832 20.516 0.761522C20.8493 1.1062 21.016 1.5112 21.016 1.97652C21.016 2.44184 20.8493 2.84108 20.516 3.17425L13.2826 10.6022L20.516 18.0818C20.8382 18.415 20.9993 18.8171 20.9993 19.2882C20.9993 19.7592 20.8382 20.1613 20.516 20.4945C20.1826 20.8392 19.791 21.0116 19.341 21.0116C18.891 21.0116 18.5049 20.8392 18.1827 20.4945L10.9993 13.0149Z" fill="#1C1B1F"/>
</svg>
