<svg xmlns="http://www.w3.org/2000/svg" width="19" height="18" viewBox="0 0 19 18" fill="none">
  <mask id="mask0_10580_19228" style="mask-type:alpha" maskUnits="userSpaceOnUse" x="0" y="0" width="19" height="18">
    <rect x="0.5" width="18" height="18" fill="#D9D9D9"/>
  </mask>
  <g mask="url(#mask0_10580_19228)">
    <path d="M4.25 14.25H5.31875L12.65 6.91875L11.5813 5.85L4.25 13.1812V14.25ZM3.5 15.75C3.2875 15.75 3.10938 15.6781 2.96562 15.5344C2.82187 15.3906 2.75 15.2125 2.75 15V13.1812C2.75 12.9812 2.7875 12.7906 2.8625 12.6094C2.9375 12.4281 3.04375 12.2688 3.18125 12.1313L12.65 2.68125C12.8 2.54375 12.9656 2.4375 13.1469 2.3625C13.3281 2.2875 13.5188 2.25 13.7188 2.25C13.9187 2.25 14.1125 2.2875 14.3 2.3625C14.4875 2.4375 14.65 2.55 14.7875 2.7L15.8188 3.75C15.9688 3.8875 16.0781 4.05 16.1469 4.2375C16.2156 4.425 16.25 4.6125 16.25 4.8C16.25 5 16.2156 5.19062 16.1469 5.37187C16.0781 5.55312 15.9688 5.71875 15.8188 5.86875L6.36875 15.3188C6.23125 15.4563 6.07188 15.5625 5.89062 15.6375C5.70937 15.7125 5.51875 15.75 5.31875 15.75H3.5ZM12.1063 6.39375L11.5813 5.85L12.65 6.91875L12.1063 6.39375Z" fill="#6B7684"/>
  </g>
</svg>