<svg width="18" height="18" viewBox="0 0 18 18" fill="none" xmlns="http://www.w3.org/2000/svg">
<rect width="18" height="18" rx="9" fill="#E4EAF0"/>
<path d="M8.99961 10.0499L6.82461 12.2249C6.68711 12.3624 6.51211 12.4312 6.29961 12.4312C6.08711 12.4312 5.91211 12.3624 5.77461 12.2249C5.63711 12.0874 5.56836 11.9124 5.56836 11.6999C5.56836 11.4874 5.63711 11.3124 5.77461 11.1749L7.94961 8.9999L5.77461 6.84365C5.63711 6.70615 5.56836 6.53115 5.56836 6.31865C5.56836 6.10615 5.63711 5.93115 5.77461 5.79365C5.91211 5.65615 6.08711 5.5874 6.29961 5.5874C6.51211 5.5874 6.68711 5.65615 6.82461 5.79365L8.99961 7.96865L11.1559 5.79365C11.2934 5.65615 11.4684 5.5874 11.6809 5.5874C11.8934 5.5874 12.0684 5.65615 12.2059 5.79365C12.3559 5.94365 12.4309 6.12178 12.4309 6.32803C12.4309 6.53428 12.3559 6.70615 12.2059 6.84365L10.0309 8.9999L12.2059 11.1749C12.3434 11.3124 12.4121 11.4874 12.4121 11.6999C12.4121 11.9124 12.3434 12.0874 12.2059 12.2249C12.0559 12.3749 11.8777 12.4499 11.6715 12.4499C11.4652 12.4499 11.2934 12.3749 11.1559 12.2249L8.99961 10.0499Z" fill="#333D4B"/>
</svg>
