<svg width="24" height="24" viewBox="0 0 24 24" fill="none" xmlns="http://www.w3.org/2000/svg">
<rect width="24" height="24" rx="7" fill="#E4EAF0"/>
<mask id="mask0_8689_28378" style="mask-type:alpha" maskUnits="userSpaceOnUse" x="0" y="0" width="24" height="24">
<rect x="0.5" y="0.5" width="23" height="23" fill="#E4EAF0" stroke="black"/>
</mask>
<g mask="url(#mask0_8689_28378)">
<path d="M6.78312 17.9841C6.54535 18.0317 6.34621 17.9723 6.18572 17.8058C6.02522 17.6394 5.96875 17.4373 6.0163 17.1995L6.67612 14.0251L9.95737 17.3243L6.78312 17.9841ZM9.95737 17.3243L6.67612 14.0251L14.3443 6.3745C14.5939 6.12483 14.8941 6 15.2448 6C15.5955 6 15.8957 6.12483 16.1454 6.3745L17.6255 7.83686C17.8752 8.08653 18 8.3897 18 8.74637C18 9.10304 17.8752 9.40621 17.6255 9.65588L9.95737 17.3243ZM15.2359 7.28402L8.28108 14.2569L9.74338 15.7193L16.716 8.7642L15.2359 7.28402Z" fill="#6B7684"/>
</g>
</svg>
