<svg width="20" height="20" viewBox="0 0 20 20" fill="none" xmlns="http://www.w3.org/2000/svg">
<mask id="mask0_8880_24554" style="mask-type:alpha" maskUnits="userSpaceOnUse" x="0" y="0" width="20" height="20">
<rect width="20" height="20" fill="#D9D9D9"/>
</mask>
<g mask="url(#mask0_8880_24554)">
<path d="M9.1 10.9H4.9C4.645 10.9 4.43125 10.8143 4.25875 10.6428C4.08625 10.4713 4 10.2588 4 10.0053C4 9.75176 4.08625 9.5375 4.25875 9.3625C4.43125 9.1875 4.645 9.1 4.9 9.1H9.1V4.9C9.1 4.645 9.18574 4.43125 9.35723 4.25875C9.52873 4.08625 9.74123 4 9.99473 4C10.2482 4 10.4625 4.08625 10.6375 4.25875C10.8125 4.43125 10.9 4.645 10.9 4.9V9.1H15.1C15.355 9.1 15.5688 9.18574 15.7413 9.35723C15.9138 9.52873 16 9.74123 16 9.99473C16 10.2482 15.9138 10.4625 15.7413 10.6375C15.5688 10.8125 15.355 10.9 15.1 10.9H10.9V15.1C10.9 15.355 10.8143 15.5688 10.6428 15.7413C10.4713 15.9138 10.2588 16 10.0053 16C9.75176 16 9.5375 15.9138 9.3625 15.7413C9.1875 15.5688 9.1 15.355 9.1 15.1V10.9Z" fill="white"/>
</g>
</svg>
