<svg width="17" height="17" viewBox="0 0 17 17" fill="none" xmlns="http://www.w3.org/2000/svg">
<path d="M8.375 14.1667L10.75 11.8125L8.375 9.45833L7.5 10.3333L8.39583 11.2292C8.00694 11.2431 7.62847 11.1806 7.26042 11.0417C6.89236 10.9028 6.5625 10.6875 6.27083 10.3958C5.99306 10.1181 5.78125 9.79861 5.63542 9.4375C5.48958 9.07639 5.41667 8.71528 5.41667 8.35417C5.41667 8.11806 5.44792 7.88194 5.51042 7.64583C5.57292 7.40972 5.65972 7.18056 5.77083 6.95833L4.85417 6.04167C4.61806 6.38889 4.44444 6.75694 4.33333 7.14583C4.22222 7.53472 4.16667 7.93056 4.16667 8.33333C4.16667 8.86111 4.27083 9.38194 4.47917 9.89583C4.6875 10.4097 4.99306 10.8681 5.39583 11.2708C5.79861 11.6736 6.25 11.9757 6.75 12.1771C7.25 12.3785 7.76389 12.4861 8.29167 12.5L7.5 13.2917L8.375 14.1667ZM11.8125 10.625C12.0486 10.2778 12.2222 9.90972 12.3333 9.52083C12.4444 9.13194 12.5 8.73611 12.5 8.33333C12.5 7.80556 12.3993 7.28125 12.1979 6.76042C11.9965 6.23958 11.6944 5.77778 11.2917 5.375C10.8889 4.97222 10.434 4.67361 9.92708 4.47917C9.42014 4.28472 8.90278 4.1875 8.375 4.1875L9.16667 3.375L8.29167 2.5L5.91667 4.85417L8.29167 7.20833L9.16667 6.33333L8.25 5.41667C8.625 5.41667 9.00694 5.48958 9.39583 5.63542C9.78472 5.78125 10.1181 5.99306 10.3958 6.27083C10.6736 6.54861 10.8854 6.86806 11.0312 7.22917C11.1771 7.59028 11.25 7.95139 11.25 8.3125C11.25 8.54861 11.2187 8.78472 11.1562 9.02083C11.0937 9.25694 11.0069 9.48611 10.8958 9.70833L11.8125 10.625ZM8.33333 16.6667C7.18056 16.6667 6.09722 16.4479 5.08333 16.0104C4.06944 15.5729 3.1875 14.9792 2.4375 14.2292C1.6875 13.4792 1.09375 12.5972 0.65625 11.5833C0.21875 10.5694 0 9.48611 0 8.33333C0 7.18056 0.21875 6.09722 0.65625 5.08333C1.09375 4.06944 1.6875 3.1875 2.4375 2.4375C3.1875 1.6875 4.06944 1.09375 5.08333 0.65625C6.09722 0.21875 7.18056 0 8.33333 0C9.48611 0 10.5694 0.21875 11.5833 0.65625C12.5972 1.09375 13.4792 1.6875 14.2292 2.4375C14.9792 3.1875 15.5729 4.06944 16.0104 5.08333C16.4479 6.09722 16.6667 7.18056 16.6667 8.33333C16.6667 9.48611 16.4479 10.5694 16.0104 11.5833C15.5729 12.5972 14.9792 13.4792 14.2292 14.2292C13.4792 14.9792 12.5972 15.5729 11.5833 16.0104C10.5694 16.4479 9.48611 16.6667 8.33333 16.6667ZM8.33333 15C10.1944 15 11.7708 14.3542 13.0625 13.0625C14.3542 11.7708 15 10.1944 15 8.33333C15 6.47222 14.3542 4.89583 13.0625 3.60417C11.7708 2.3125 10.1944 1.66667 8.33333 1.66667C6.47222 1.66667 4.89583 2.3125 3.60417 3.60417C2.3125 4.89583 1.66667 6.47222 1.66667 8.33333C1.66667 10.1944 2.3125 11.7708 3.60417 13.0625C4.89583 14.3542 6.47222 15 8.33333 15Z" fill="#1C1B1F"/>
</svg>
