<svg width="15" height="15" viewBox="0 0 15 15" fill="none" xmlns="http://www.w3.org/2000/svg">
<path d="M1.00457 14.9792C0.712907 15.0486 0.459434 14.9757 0.244156 14.7604C0.0288787 14.5451 -0.0440379 14.2917 0.0254065 14L0.85874 10.0208L4.98374 14.1458L1.00457 14.9792ZM4.98374 14.1458L0.85874 10.0208L10.4004 0.479167C10.7199 0.159722 11.1157 0 11.5879 0C12.0601 0 12.456 0.159722 12.7754 0.479167L14.5254 2.22917C14.8448 2.54861 15.0046 2.94444 15.0046 3.41667C15.0046 3.88889 14.8448 4.28472 14.5254 4.60417L4.98374 14.1458ZM11.5879 1.64583L2.96291 10.2708L4.73374 12.0417L13.3587 3.41667L11.5879 1.64583Z" fill="#1C1B1F"/>
</svg>
